<svg xmlns="http://www.w3.org/2000/svg" viewBox="0 0 24 24" role="img" aria-label="Call">
  <rect width="24" height="24" rx="12" fill="#34A853"/>
  <path fill="#fff" d="M15.68 14.76c-.23-.12-1.37-.67-1.58-.75-.21-.08-.36-.12-.51.12-.15.23-.59.74-.72.89-.13.15-.27.17-.5.06-.23-.12-.99-.36-1.88-1.14-.69-.62-1.16-1.38-1.29-1.61-.13-.23-.01-.35.1-.46.1-.1.23-.27.34-.4.11-.13.15-.23.23-.39.08-.15.04-.29-.02-.4-.06-.12-.51-1.24-.7-1.7-.19-.45-.37-.39-.51-.4h-.44c-.15 0-.4.06-.61.29-.21.23-.8.78-.8 1.9 0 1.12.82 2.2.93 2.35.12.15 1.61 2.46 3.91 3.45.55.24.98.38 1.31.48.55.17 1.05.15 1.45.09.44-.06 1.37-.56 1.56-1.11.19-.55.19-1.02.13-1.11-.05-.09-.21-.15-.44-.27z"/>
</svg>
