<svg xmlns="http://www.w3.org/2000/svg" viewBox="0 0 24 24" role="img" aria-label="WhatsApp">
  <rect x="0" y="0" width="24" height="24" rx="5" fill="#25D366"/>
  <path fill="#fff" d="M12 4.5a7.5 7.5 0 0 0-6.58 11.11L4.5 19.5l3.98-1.04A7.5 7.5 0 1 0 12 4.5zm0 13.54a6.03 6.03 0 0 1-3.07-.84l-.22-.13-2.36.62.63-2.3-.14-.24a6.04 6.04 0 1 1 5.16 2.89zm3.31-4.52c-.18-.09-1.09-.54-1.26-.6-.17-.06-.3-.09-.43.09-.13.18-.49.6-.6.72-.11.13-.22.14-.4.05-.18-.09-.78-.29-1.49-.91-.55-.49-.92-1.08-1.03-1.26-.11-.18-.01-.28.08-.37.08-.08.18-.22.27-.33.09-.11.12-.18.18-.31.06-.13.03-.24-.01-.33-.05-.09-.43-1.03-.59-1.42-.16-.38-.32-.33-.43-.33h-.37c-.13 0-.33.05-.51.24-.17.18-.67.65-.67 1.58 0 .93.69 1.84.79 1.96.09.13 1.34 2.04 3.24 2.86.45.19.8.3 1.08.38.45.14.87.12 1.2.07.37-.05 1.09-.44 1.24-.87.15-.43.15-.8.1-.87-.04-.08-.17-.13-.35-.22z"/>
</svg>
